<svg width="1600" height="900" viewBox="0 0 1600 900" fill="none" xmlns="http://www.w3.org/2000/svg">
  <defs>
    <linearGradient id="bg" x1="0" y1="0" x2="1" y2="1">
      <stop offset="0%" stop-color="#03040D"/>
      <stop offset="45%" stop-color="#090B1E"/>
      <stop offset="100%" stop-color="#130A2D"/>
    </linearGradient>
    <radialGradient id="glow1" cx="0" cy="0" r="1" gradientUnits="userSpaceOnUse" gradientTransform="translate(420 280) rotate(20) scale(540 280)">
      <stop offset="0%" stop-color="#7C3AED" stop-opacity="0.55"/>
      <stop offset="100%" stop-color="#7C3AED" stop-opacity="0"/>
    </radialGradient>
    <radialGradient id="glow2" cx="0" cy="0" r="1" gradientUnits="userSpaceOnUse" gradientTransform="translate(1230 620) rotate(-18) scale(520 260)">
      <stop offset="0%" stop-color="#9333EA" stop-opacity="0.48"/>
      <stop offset="100%" stop-color="#9333EA" stop-opacity="0"/>
    </radialGradient>
    <linearGradient id="chrome" x1="640" y1="270" x2="980" y2="650" >
      <stop offset="0%" stop-color="#D8B4FE"/>
      <stop offset="50%" stop-color="#8B5CF6"/>
      <stop offset="100%" stop-color="#4C1D95"/>
    </linearGradient>
    <filter id="blur" x="-20%" y="-20%" width="140%" height="140%">
      <feGaussianBlur stdDeviation="12"/>
    </filter>
  </defs>

  <rect width="1600" height="900" fill="url(#bg)"/>
  <rect width="1600" height="900" fill="url(#glow1)"/>
  <rect width="1600" height="900" fill="url(#glow2)"/>

  <g opacity="0.20">
    <path d="M0 130L1600 630" stroke="#8B5CF6" stroke-width="2"/>
    <path d="M0 220L1600 720" stroke="#6D28D9" stroke-width="2"/>
    <path d="M0 40L1600 540" stroke="#A855F7" stroke-width="1.5"/>
  </g>

  <g filter="url(#blur)" opacity="0.55">
    <ellipse cx="790" cy="480" rx="260" ry="260" fill="#5B21B6"/>
  </g>

  <g opacity="0.95">
    <path d="M800 180L980 320L920 650L800 760L680 650L620 320L800 180Z" fill="#1A1133" stroke="url(#chrome)" stroke-width="6"/>
    <path d="M800 250L915 345L875 595L800 665L725 595L685 345L800 250Z" fill="#100A25" stroke="#7C3AED" stroke-opacity="0.9" stroke-width="3"/>
    <text x="800" y="520" text-anchor="middle" font-size="178" font-family="Orbitron, Rajdhani, sans-serif" fill="url(#chrome)" font-weight="700" letter-spacing="8">MCM</text>
  </g>

  <g opacity="0.45">
    <path d="M570 350L500 290L465 355L530 410Z" fill="#A78BFA"/>
    <path d="M1030 350L1100 290L1135 355L1070 410Z" fill="#A78BFA"/>
  </g>
</svg>
